<svg width="714" height="294" viewBox="0 0 714 294" fill="none" xmlns="http://www.w3.org/2000/svg">
<path d="M670.751 58.0933C690.152 46.6874 702.503 33.0321 713.162 0.113037V293.817H0.280701C0.280701 293.817 28.2546 249.143 35.9248 245.816C43.5951 242.49 61.6427 240.589 63.4474 240.589C65.2522 240.589 93.1187 244.353 112.627 242.015C112.627 242.015 124.358 241.539 127.968 245.816C131.577 250.094 140.15 283.836 148.271 284.312C156.393 284.787 164.514 257.222 172.184 257.222C179.855 257.222 186.171 261.975 186.171 261.975C186.171 261.975 193.842 267.203 201.061 266.727C208.28 266.252 218.657 243.915 218.657 243.915L232.644 217.777C232.644 217.777 254.752 175.004 267.837 175.004C280.922 175.004 290.848 178.806 299.42 178.331C307.993 177.856 310.249 169.424 321.98 175.004C333.711 180.585 326.041 192.589 347.247 199.242C368.453 205.896 384.244 92.7865 394.622 92.7865C404.999 92.7865 433.875 143.163 443.801 141.262C453.728 139.361 461.398 91.836 469.068 93.737C476.738 95.638 481.127 103.291 486.665 110.846C490.531 111.985 492.649 112.274 496.14 110.846L505.163 93.737C509.224 88.034 510.127 80.9053 517.346 78.0538C517.346 78.0538 520.955 78.0538 524.565 80.9053C528.174 83.7568 530.881 86.133 530.881 86.133L545.319 109.42L556.148 135.559C556.148 135.559 562.014 150.767 567.879 149.341C573.744 147.915 575.549 129.856 575.549 129.856L590.89 60.9448L598.56 45.2616C598.56 45.2616 607.133 31.4794 608.937 30.0537C610.742 28.6279 613.9 27.6774 617.51 28.6279C621.12 29.5784 623.375 32.9052 623.375 32.9052L628.339 39.5587L636.009 51.9151C649.996 58.0933 654.056 58.0933 670.751 58.0933Z" fill="url(#paint0_linear_202_145)"/>
<defs>
<linearGradient id="paint0_linear_202_145" x1="356.722" y1="0.113037" x2="356.722" y2="293.817" gradientUnits="userSpaceOnUse">
<stop stop-color="#56CCF2" stop-opacity="0.15"/>
<stop offset="1" stop-color="white" stop-opacity="0"/>
</linearGradient>
</defs>
</svg>
