<svg width="102" height="30" viewBox="0 0 102 30" fill="none" xmlns="http://www.w3.org/2000/svg">
<path d="M21.604 22.104L25.174 25.716C23.83 27.06 22.262 28.11 20.47 28.866C18.678 29.622 16.788 30 14.8 30C12.14 30 9.676 29.342 7.408 28.026C5.168 26.71 3.39 24.932 2.074 22.692C0.758 20.424 0.1 17.96 0.1 15.3C0.1 12.64 0.758 10.19 2.074 7.95C3.39 5.682 5.168 3.89 7.408 2.574C9.676 1.258 12.14 0.599998 14.8 0.599998C15.808 0.599998 16.788 0.697998 17.74 0.893999C18.72 1.09 19.644 1.384 20.512 1.776C21.408 2.14 22.248 2.588 23.032 3.12C23.816 3.652 24.53 4.254 25.174 4.926L21.604 8.496C19.728 6.62 17.46 5.682 14.8 5.682C12.14 5.682 9.872 6.62 7.996 8.496C6.12 10.372 5.182 12.64 5.182 15.3C5.182 17.96 6.12 20.228 7.996 22.104C9.872 23.98 12.14 24.918 14.8 24.918C17.46 24.918 19.728 23.98 21.604 22.104ZM50.1322 9.21C50.1322 10.862 49.6982 12.374 48.8302 13.746C47.9622 15.118 46.8142 16.168 45.3862 16.896L50.1322 30H44.7142L40.3042 17.862H29.4262V12.738H41.5222C42.5022 12.738 43.3282 12.402 44.0002 11.73C44.7002 11.03 45.0502 10.204 45.0502 9.252C45.0502 8.272 44.7002 7.432 44.0002 6.732C43.3282 6.032 42.5022 5.682 41.5222 5.682H29.4262V0.599998H41.5222C43.9022 0.599998 45.9322 1.44 47.6122 3.12C49.2922 4.8 50.1322 6.83 50.1322 9.21ZM70.8565 0.599998H77.0725L66.3625 16.098V30H61.2805V16.098L50.5705 0.599998H56.7445L63.8005 10.806L70.8565 0.599998ZM92.5456 0.599998C94.9256 0.599998 96.9556 1.44 98.6356 3.12C100.316 4.8 101.156 6.83 101.156 9.21C101.156 11.59 100.316 13.62 98.6356 15.3C96.9556 16.98 94.9256 17.82 92.5456 17.82H85.5316V30H80.4496V12.738H92.5456C93.5256 12.738 94.3516 12.402 95.0236 11.73C95.7236 11.03 96.0736 10.19 96.0736 9.21C96.0736 8.23 95.7236 7.404 95.0236 6.732C94.3516 6.032 93.5256 5.682 92.5456 5.682H80.4496V0.599998H92.5456Z" fill="#00A7F7"/>
</svg>
