<svg width="18" height="18" viewBox="0 0 18 18" fill="none" xmlns="http://www.w3.org/2000/svg">
<path d="M10.365 16.5H7.63504C7.46398 16.5 7.29806 16.4416 7.16479 16.3344C7.03151 16.2271 6.93889 16.0776 6.90229 15.9105L6.59704 14.4975C6.18983 14.3191 5.80371 14.096 5.44579 13.8323L4.06804 14.271C3.90496 14.323 3.729 14.3177 3.56938 14.2559C3.40975 14.1941 3.27607 14.0795 3.19054 13.9313L1.82254 11.568C1.73789 11.4196 1.70612 11.2469 1.73242 11.0781C1.75871 10.9093 1.84152 10.7544 1.96729 10.6388L3.03604 9.66375C2.98743 9.22208 2.98743 8.77642 3.03604 8.33475L1.96729 7.362C1.84134 7.24633 1.75842 7.09131 1.73212 6.92234C1.70582 6.75337 1.7377 6.58048 1.82254 6.432L3.18754 4.06725C3.27307 3.91899 3.40675 3.80444 3.56638 3.74264C3.726 3.68084 3.90196 3.6755 4.06504 3.7275L5.44279 4.16625C5.62579 4.03125 5.81629 3.90525 6.01279 3.79125C6.20254 3.68475 6.39754 3.588 6.59704 3.50175L6.90304 2.09025C6.93946 1.92315 7.03191 1.77352 7.16505 1.66616C7.29818 1.55881 7.46401 1.50018 7.63504 1.5H10.365C10.5361 1.50018 10.7019 1.55881 10.835 1.66616C10.9682 1.77352 11.0606 1.92315 11.097 2.09025L11.406 3.5025C11.616 3.5955 11.8215 3.69975 12.0203 3.816C12.2055 3.92325 12.3848 4.041 12.5573 4.16775L13.9358 3.729C14.0988 3.67719 14.2746 3.68263 14.434 3.74442C14.5935 3.80621 14.727 3.92065 14.8125 4.06875L16.1775 6.4335C16.3515 6.73875 16.2915 7.125 16.0328 7.36275L14.964 8.33775C15.0126 8.77942 15.0126 9.22508 14.964 9.66675L16.0328 10.6418C16.2915 10.8802 16.3515 11.2657 16.1775 11.571L14.8125 13.9357C14.727 14.084 14.5933 14.1986 14.4337 14.2604C14.2741 14.3222 14.0981 14.3275 13.935 14.2755L12.5573 13.8368C12.1996 14.1003 11.8138 14.3231 11.4068 14.5012L11.097 15.9105C11.0605 16.0775 10.9679 16.2269 10.8348 16.3341C10.7017 16.4413 10.536 16.4999 10.365 16.5ZM8.99704 6C8.20139 6 7.43832 6.31607 6.87572 6.87868C6.31311 7.44129 5.99704 8.20435 5.99704 9C5.99704 9.79565 6.31311 10.5587 6.87572 11.1213C7.43832 11.6839 8.20139 12 8.99704 12C9.79269 12 10.5557 11.6839 11.1184 11.1213C11.681 10.5587 11.997 9.79565 11.997 9C11.997 8.20435 11.681 7.44129 11.1184 6.87868C10.5557 6.31607 9.79269 6 8.99704 6Z" fill="#F2F2F2" fill-opacity="0.6"/>
</svg>
