<svg width="32" height="32" viewBox="0 0 32 32" fill="none" xmlns="http://www.w3.org/2000/svg">
<path fill-rule="evenodd" clip-rule="evenodd" d="M16 32C7.163 32 0 24.837 0 16C0 7.163 7.163 0 16 0C24.837 0 32 7.163 32 16C32 24.837 24.837 32 16 32ZM10.482 16.896V24H17.031C18.241 24 19.288 23.79 20.173 23.373C21.058 22.954 21.78 22.383 22.341 21.658C22.901 20.934 23.318 20.086 23.591 19.115C23.864 18.144 24 17.105 24 16C24.0069 14.9478 23.8689 13.8996 23.59 12.885C23.318 11.915 22.901 11.066 22.34 10.342C21.78 9.617 21.058 9.046 20.173 8.627C19.288 8.21 18.24 8 17.03 8H10.481V14.61H9V16.896H10.482ZM13.248 14.611V10.286H15.969C17.046 10.286 17.927 10.431 18.613 10.723C19.299 11.014 19.837 11.417 20.228 11.933C20.6279 12.4696 20.9001 13.0903 21.024 13.748C21.164 14.443 21.234 15.193 21.234 16C21.2388 16.7558 21.1685 17.5102 21.024 18.252C20.884 18.947 20.619 19.552 20.228 20.067C19.837 20.583 19.298 20.986 18.613 21.277C17.927 21.569 17.046 21.714 15.969 21.714H13.248V16.896H17.562V14.611H13.248Z" fill="#C2A633"/>
</svg>
