<svg width="18" height="18" viewBox="0 0 18 18" fill="none" xmlns="http://www.w3.org/2000/svg">
<path d="M9 1.125C7.44248 1.125 5.91993 1.58686 4.62489 2.45218C3.32985 3.31749 2.32049 4.5474 1.72445 5.98637C1.12841 7.42534 0.972461 9.00874 1.27632 10.5363C1.58018 12.0639 2.3302 13.4671 3.43154 14.5685C4.53288 15.6698 5.93607 16.4198 7.46367 16.7237C8.99127 17.0275 10.5747 16.8716 12.0136 16.2756C13.4526 15.6795 14.6825 14.6702 15.5478 13.3751C16.4131 12.0801 16.875 10.5575 16.875 9C16.875 6.91142 16.0453 4.90838 14.5685 3.43153C13.0916 1.95469 11.0886 1.125 9 1.125ZM9 15.75C7.66498 15.75 6.35994 15.3541 5.24991 14.6124C4.13987 13.8707 3.27471 12.8165 2.76382 11.5831C2.25293 10.3497 2.11925 8.99251 2.3797 7.68314C2.64015 6.37377 3.28303 5.17103 4.22703 4.22703C5.17104 3.28302 6.37377 2.64015 7.68315 2.3797C8.99252 2.11925 10.3497 2.25292 11.5831 2.76381C12.8165 3.2747 13.8707 4.13987 14.6124 5.2499C15.3541 6.35993 15.75 7.66498 15.75 9C15.75 10.7902 15.0388 12.5071 13.773 13.773C12.5071 15.0388 10.7902 15.75 9 15.75Z" fill="#F2F2F2" fill-opacity="0.6"/>
<path d="M9 14.0625C9.46599 14.0625 9.84375 13.6847 9.84375 13.2188C9.84375 12.7528 9.46599 12.375 9 12.375C8.53401 12.375 8.15625 12.7528 8.15625 13.2188C8.15625 13.6847 8.53401 14.0625 9 14.0625Z" fill="#F2F2F2" fill-opacity="0.6"/>
<path d="M9.56251 4.50001H8.71876C8.38614 4.49926 8.05665 4.56423 7.74921 4.69118C7.44177 4.81812 7.16243 5.00454 6.92724 5.23974C6.69204 5.47493 6.50562 5.75427 6.37868 6.06171C6.25173 6.36915 6.18676 6.69864 6.18751 7.03126V7.31251H7.31251V7.03126C7.31251 6.6583 7.46066 6.30061 7.72439 6.03689C7.98811 5.77316 8.3458 5.62501 8.71876 5.62501H9.56251C9.93547 5.62501 10.2932 5.77316 10.5569 6.03689C10.8206 6.30061 10.9688 6.6583 10.9688 7.03126C10.9688 7.40422 10.8206 7.7619 10.5569 8.02562C10.2932 8.28935 9.93547 8.43751 9.56251 8.43751H8.43751V10.9688H9.56251V9.56251C10.2338 9.56251 10.8777 9.29582 11.3524 8.82112C11.8271 8.34642 12.0938 7.70259 12.0938 7.03126C12.0938 6.35993 11.8271 5.71609 11.3524 5.24139C10.8777 4.76669 10.2338 4.50001 9.56251 4.50001Z" fill="#F2F2F2" fill-opacity="0.6"/>
</svg>
