<?xml version="1.0" encoding="UTF-8" standalone="no"?>
<svg
   width="46"
   height="40"
   viewBox="0 0 46 40"
   fill="none"
   version="1.1"
   id="svg22"
   xmlns="http://www.w3.org/2000/svg"
   xmlns:svg="http://www.w3.org/2000/svg">
  <path
     fill-rule="evenodd"
     clip-rule="evenodd"
     d="M 16,32 C 7.163,32 0,24.837 0,16 0,7.163 7.163,0 16,0 c 8.837,0 16,7.163 16,16 0,8.837 -7.163,16 -16,16 z m 1.922,-18.207 v -2.366 h 5.414 V 7.819 H 8.595 v 3.608 h 5.414 v 2.365 C 9.609,13.994 6.3,14.866 6.3,15.91 c 0,1.044 3.309,1.915 7.709,2.118 v 7.582 h 3.913 v -7.584 c 4.393,-0.202 7.694,-1.073 7.694,-2.116 0,-1.043 -3.301,-1.914 -7.694,-2.117 z m 0,3.59 v -0.002 c -0.11,0.008 -0.677,0.042 -1.942,0.042 -1.01,0 -1.721,-0.03 -1.971,-0.042 v 0.003 c -3.888,-0.171 -6.79,-0.848 -6.79,-1.658 0,-0.809 2.902,-1.486 6.79,-1.66 v 2.644 c 0.254,0.018 0.982,0.061 1.988,0.061 1.207,0 1.812,-0.05 1.925,-0.06 v -2.643 c 3.88,0.173 6.775,0.85 6.775,1.658 0,0.81 -2.895,1.485 -6.775,1.657 z"
     fill="#27ae60"
     id="path4" />
  <g
     clip-path="url(#clip0_205_55)"
     id="g10">
    <path
       d="M 45.5215,27.8695 C 43.3837,36.4455 34.6949,41.6587 26.1311,39.5209 17.5549,37.3831 12.3416,28.6946 14.4795,20.131 16.6172,11.555 25.2935,6.34173 33.8697,8.4796 c 8.5638,2.1253 13.7897,10.8138 11.6518,19.3899 z"
       fill="url(#paint0_linear_205_55)"
       id="path6"
       style="fill:#f89c2c;fill-opacity:1" />
    <path
       d="m 37.6181,22.0064 c 0.3125,-2.125 -1.3,-3.275 -3.525,-4.0375 l 0.725,-2.8875 -1.75,-0.4375 -0.7,2.8125 c -0.4625,-0.1125 -0.9375,-0.225 -1.4125,-0.325 l 0.7,-2.825 -1.75,-0.4375 -0.7125,2.875 c -0.3875,-0.0875 -0.7625,-0.175 -1.125,-0.2625 v -0.0125 l -2.425,-0.6 -0.4625,1.875 c 0,0 1.3,0.3 1.275,0.3125 0.7125,0.175 0.8375,0.65 0.8125,1.025 l -0.825,3.2875 c 0.05,0.0125 0.1125,0.025 0.1875,0.0625 -0.0625,-0.0125 -0.125,-0.025 -0.1875,-0.05 l -1.15,4.6 c -0.0875,0.2125 -0.3125,0.5375 -0.8,0.4125 0.0125,0.025 -1.275,-0.3125 -1.275,-0.3125 l -0.875,2.0125 2.2875,0.575 c 0.425,0.1125 0.8375,0.2125 1.25,0.325 l -0.725,2.9125 1.75,0.4375 0.725,-2.8875 c 0.475,0.125 0.95,0.25 1.4,0.3625 l -0.7125,2.875 1.75,0.4375 0.725,-2.9125 c 3,0.5625 5.25,0.3375 6.1875,-2.375 0.7625,-2.175 -0.0375,-3.4375 -1.6125,-4.2625 1.1625,-0.2625 2.025,-1.025 2.25,-2.575 z m -4.0125,5.625 c -0.5375,2.175 -4.2125,1 -5.4,0.7 l 0.9625,-3.8625 c 1.1875,0.3 5.0125,0.8875 4.4375,3.1625 z m 0.55,-5.6625 c -0.5,1.9875 -3.55,0.975 -4.5375,0.725 l 0.875,-3.5 c 0.9875,0.25 4.175,0.7125 3.6625,2.775 z"
       fill="#ffffff"
       id="path8" />
  </g>
  <defs
     id="defs20">
    <linearGradient
       id="paint0_linear_205_55"
       x1="29.991501"
       y1="7.9925599"
       x2="29.991501"
       y2="39.997002"
       gradientUnits="userSpaceOnUse">
      <stop
         stop-color="#F9AA4B"
         id="stop12" />
      <stop
         offset="1"
         stop-color="#F7931A"
         id="stop14" />
    </linearGradient>
    <clipPath
       id="clip0_205_55">
      <rect
         width="32"
         height="32"
         fill="#ffffff"
         transform="translate(14,8)"
         id="rect17"
         x="0"
         y="0" />
    </clipPath>
  </defs>
</svg>
