<?xml version="1.0" encoding="UTF-8" standalone="no"?>
<svg
   width="18"
   height="14"
   viewBox="0 0 18 14"
   fill="none"
   version="1.1"
   id="svg4"
   xmlns="http://www.w3.org/2000/svg"
   xmlns:svg="http://www.w3.org/2000/svg">
  <defs
     id="defs8" />
  <path
     d="M17.3333 11.6666C17.3333 12.7712 16.4379 13.6666 15.3333 13.6666H10.1667C9.0621 13.6666 8.16666 12.7712 8.16666 11.6666V9.83325C8.16666 8.72868 9.06209 7.83325 10.1667 7.83325H15.3333C16.4379 7.83325 17.3333 8.72868 17.3333 9.83325V11.6666ZM6.5 11.6666C6.5 12.7712 5.60457 13.6666 4.5 13.6666H2.66667C1.5621 13.6666 0.666664 12.7712 0.666664 11.6666V9.83325C0.666664 8.72868 1.56209 7.83325 2.66666 7.83325H4.5C5.60457 7.83325 6.5 8.72868 6.5 9.83325V11.6666ZM17.3333 4.16658C17.3333 5.27115 16.4379 6.16658 15.3333 6.16658H2.66666C1.56209 6.16658 0.666664 5.27115 0.666664 4.16658V2.33325C0.666664 1.22868 1.56209 0.333252 2.66666 0.333252H15.3333C16.4379 0.333252 17.3333 1.22868 17.3333 2.33325V4.16658Z"
     fill="#00A7F7"
     id="path2"
     style="fill:#ffffff;fill-opacity:1" />
</svg>
