<?xml version="1.0" encoding="UTF-8" standalone="no"?>
<svg
   width="32"
   height="32"
   viewBox="0 0 32 32"
   fill="none"
   version="1.1"
   id="svg18"
   xmlns="http://www.w3.org/2000/svg"
   xmlns:svg="http://www.w3.org/2000/svg">
  <g
     clip-path="url(#clip0_201_77)"
     id="g6">
    <path
       d="M31.5215 19.8695C29.3837 28.4455 20.6949 33.6587 12.1311 31.5209C3.55485 29.3831 -1.6584 20.6946 0.47948 12.131C2.61723 3.55498 11.2935 -1.65827 19.8697 0.479603C28.4335 2.60485 33.6594 11.2934 31.5215 19.8695Z"
       fill="url(#paint0_linear_201_77)"
       id="path2"
       style="fill:#f7941c;fill-opacity:1" />
    <path
       d="M23.6181 14.0064C23.9306 11.8814 22.3181 10.7314 20.0931 9.9689L20.8181 7.0814L19.0681 6.6439L18.3681 9.4564C17.9056 9.3439 17.4306 9.2314 16.9556 9.1314L17.6556 6.3064L15.9056 5.8689L15.1931 8.7439C14.8056 8.6564 14.4306 8.5689 14.0681 8.4814V8.4689L11.6431 7.8689L11.1806 9.7439C11.1806 9.7439 12.4806 10.0439 12.4556 10.0564C13.1681 10.2314 13.2931 10.7064 13.2681 11.0814L12.4431 14.3689C12.4931 14.3814 12.5556 14.3939 12.6306 14.4314C12.5681 14.4189 12.5056 14.4064 12.4431 14.3814L11.2931 18.9814C11.2056 19.1939 10.9806 19.5189 10.4931 19.3939C10.5056 19.4189 9.21814 19.0814 9.21814 19.0814L8.34314 21.0939L10.6306 21.6689C11.0556 21.7814 11.4681 21.8814 11.8806 21.9939L11.1556 24.9064L12.9056 25.3439L13.6306 22.4564C14.1056 22.5814 14.5806 22.7064 15.0306 22.8189L14.3181 25.6939L16.0681 26.1314L16.7931 23.2189C19.7931 23.7814 22.0431 23.5564 22.9806 20.8439C23.7431 18.6689 22.9431 17.4064 21.3681 16.5814C22.5306 16.3189 23.3931 15.5564 23.6181 14.0064ZM19.6056 19.6314C19.0681 21.8064 15.3931 20.6314 14.2056 20.3314L15.1681 16.4689C16.3556 16.7689 20.1806 17.3564 19.6056 19.6314ZM20.1556 13.9689C19.6556 15.9564 16.6056 14.9439 15.6181 14.6939L16.4931 11.1939C17.4806 11.4439 20.6681 11.9064 20.1556 13.9689Z"
       fill="white"
       id="path4" />
  </g>
  <defs
     id="defs16">
    <linearGradient
       id="paint0_linear_201_77"
       x1="15.9915"
       y1="-0.00743585"
       x2="15.9915"
       y2="31.997"
       gradientUnits="userSpaceOnUse">
      <stop
         stop-color="#F9AA4B"
         id="stop8" />
      <stop
         offset="1"
         stop-color="#F7931A"
         id="stop10" />
    </linearGradient>
    <clipPath
       id="clip0_201_77">
      <rect
         width="32"
         height="32"
         fill="white"
         id="rect13" />
    </clipPath>
  </defs>
</svg>
